<svg width="113" height="24" viewBox="0 0 113 24" fill="none" xmlns="http://www.w3.org/2000/svg">
<path d="M5.544 5.62799H8.262L9.594 9.71399L10.926 5.62799H13.662L11.484 11.568L12.78 14.97L15.984 5.60999H19.206L14.22 18.39H11.664L9.594 13.386L7.542 18.39H4.968L0 5.60999H3.204L6.426 14.97L7.686 11.568L5.544 5.62799Z" fill="#4D5AE5"/>
<path d="M29.8384 15.798V18.39H20.8564V5.60999H29.6764V8.20199H23.8084V10.686H28.8484V13.08H23.8084V15.798H29.8384Z" fill="#4D5AE5"/>
<path d="M42.7378 15.114C42.7378 15.846 42.5398 16.458 42.1438 16.95C41.7598 17.43 41.2378 17.79 40.5778 18.03C39.9178 18.27 39.1918 18.39 38.3998 18.39H32.1718V5.60999H39.2818C39.8818 5.60999 40.3978 5.77199 40.8298 6.09599C41.2738 6.40799 41.6098 6.81599 41.8378 7.31999C42.0778 7.82399 42.1978 8.34599 42.1978 8.88599C42.1978 9.48599 42.0418 10.062 41.7298 10.614C41.4178 11.154 40.9618 11.562 40.3618 11.838C41.0938 12.054 41.6698 12.438 42.0898 12.99C42.5218 13.542 42.7378 14.25 42.7378 15.114ZM39.7318 14.52C39.7318 14.244 39.6778 14.004 39.5698 13.8C39.4618 13.584 39.3178 13.416 39.1378 13.296C38.9698 13.164 38.7658 13.098 38.5258 13.098H35.1238V15.888H38.3998C38.6518 15.888 38.8738 15.828 39.0658 15.708C39.2698 15.588 39.4318 15.426 39.5518 15.222C39.6718 15.018 39.7318 14.784 39.7318 14.52ZM35.1238 8.12998V10.776H38.0218C38.2378 10.776 38.4358 10.728 38.6158 10.632C38.8078 10.536 38.9638 10.392 39.0838 10.2C39.2038 9.99599 39.2638 9.74399 39.2638 9.44399C39.2638 9.15599 39.2098 8.91599 39.1018 8.72399C39.0058 8.53199 38.8738 8.38799 38.7058 8.29199C38.5378 8.18398 38.3458 8.12998 38.1298 8.12998H35.1238Z" fill="#4D5AE5"/>
<path d="M51.3058 9.33601C51.2698 9.27601 51.1438 9.18601 50.9278 9.06601C50.7118 8.93401 50.4418 8.79601 50.1178 8.65201C49.7938 8.50801 49.4398 8.38201 49.0558 8.27401C48.6718 8.16601 48.2878 8.11201 47.9038 8.11201C47.3998 8.11201 47.0098 8.20201 46.7338 8.38201C46.4578 8.55001 46.3198 8.81401 46.3198 9.17401C46.3198 9.46201 46.4218 9.69001 46.6258 9.85801C46.8418 10.026 47.1478 10.176 47.5438 10.308C47.9398 10.428 48.4258 10.572 49.0018 10.74C49.8178 10.956 50.5258 11.22 51.1258 11.532C51.7258 11.832 52.1818 12.222 52.4938 12.702C52.8178 13.182 52.9798 13.818 52.9798 14.61C52.9798 15.33 52.8478 15.942 52.5838 16.446C52.3198 16.938 51.9598 17.34 51.5038 17.652C51.0598 17.952 50.5498 18.174 49.9738 18.318C49.3978 18.45 48.8038 18.516 48.1918 18.516C47.5678 18.516 46.9258 18.456 46.2658 18.336C45.6178 18.204 44.9938 18.024 44.3938 17.796C43.7938 17.556 43.2418 17.268 42.7378 16.932L44.0338 14.358C44.0818 14.418 44.2378 14.532 44.5018 14.7C44.7658 14.856 45.0898 15.024 45.4738 15.204C45.8698 15.372 46.3078 15.522 46.7878 15.654C47.2678 15.786 47.7538 15.852 48.2458 15.852C48.7738 15.852 49.1638 15.768 49.4158 15.6C49.6798 15.432 49.8118 15.198 49.8118 14.898C49.8118 14.574 49.6738 14.322 49.3978 14.142C49.1338 13.962 48.7678 13.8 48.2998 13.656C47.8438 13.512 47.3158 13.35 46.7158 13.17C45.9358 12.93 45.2878 12.66 44.7718 12.36C44.2678 12.06 43.8898 11.694 43.6378 11.262C43.3978 10.83 43.2778 10.29 43.2778 9.64201C43.2778 8.74201 43.4878 7.98601 43.9078 7.37401C44.3398 6.75001 44.9158 6.28201 45.6358 5.97001C46.3558 5.64601 47.1418 5.48401 47.9938 5.48401C48.5938 5.48401 49.1698 5.55601 49.7218 5.70001C50.2858 5.84401 50.8078 6.02401 51.2878 6.24001C51.7798 6.45601 52.2178 6.67201 52.6018 6.88801L51.3058 9.33601Z" fill="#2E2F42"/>
<path d="M64.99 8.18401H61.102V18.372H58.15V8.18401H54.244V5.59201H64.99V8.18401Z" fill="#2E2F42"/>
<path d="M72.4617 18.48C71.4417 18.48 70.5717 18.312 69.8517 17.976C69.1317 17.628 68.5437 17.16 68.0877 16.572C67.6437 15.972 67.3137 15.294 67.0977 14.538C66.8937 13.77 66.7917 12.966 66.7917 12.126V5.59201H69.7437V12.126C69.7437 12.606 69.7917 13.074 69.8877 13.53C69.9837 13.974 70.1397 14.37 70.3557 14.718C70.5717 15.066 70.8477 15.342 71.1837 15.546C71.5317 15.75 71.9577 15.852 72.4617 15.852C72.9777 15.852 73.4097 15.75 73.7577 15.546C74.1057 15.33 74.3817 15.048 74.5857 14.7C74.7897 14.34 74.9397 13.938 75.0357 13.494C75.1317 13.05 75.1797 12.594 75.1797 12.126V5.59201H78.1317V12.126C78.1317 13.014 78.0177 13.842 77.7897 14.61C77.5737 15.378 77.2377 16.056 76.7817 16.644C76.3257 17.22 75.7377 17.67 75.0177 17.994C74.3097 18.318 73.4577 18.48 72.4617 18.48Z" fill="#2E2F42"/>
<path d="M80.959 18.372V5.59201H85.729C87.133 5.59201 88.303 5.88001 89.239 6.45601C90.187 7.02001 90.901 7.78801 91.381 8.76001C91.861 9.72001 92.101 10.788 92.101 11.964C92.101 13.26 91.837 14.388 91.309 15.348C90.781 16.308 90.037 17.052 89.077 17.58C88.129 18.108 87.013 18.372 85.729 18.372H80.959ZM89.095 11.964C89.095 11.22 88.963 10.566 88.699 10.002C88.435 9.42601 88.051 8.98201 87.547 8.67001C87.043 8.34601 86.437 8.18401 85.729 8.18401H83.911V15.78H85.729C86.449 15.78 87.055 15.618 87.547 15.294C88.051 14.958 88.435 14.502 88.699 13.926C88.963 13.338 89.095 12.684 89.095 11.964Z" fill="#2E2F42"/>
<path d="M94.3837 18.372V5.59201H97.3357V18.372H94.3837Z" fill="#2E2F42"/>
<path d="M105.918 18.48C104.958 18.48 104.088 18.3 103.308 17.94C102.54 17.568 101.874 17.076 101.31 16.464C100.758 15.84 100.332 15.144 100.032 14.376C99.7322 13.596 99.5822 12.792 99.5822 11.964C99.5822 11.112 99.7382 10.302 100.05 9.53401C100.374 8.76601 100.818 8.08201 101.382 7.48201C101.958 6.87001 102.636 6.39001 103.416 6.04201C104.196 5.69401 105.048 5.52001 105.972 5.52001C106.92 5.52001 107.778 5.70601 108.546 6.07801C109.326 6.43801 109.992 6.93001 110.544 7.55401C111.108 8.17801 111.54 8.88001 111.84 9.66001C112.14 10.428 112.29 11.214 112.29 12.018C112.29 12.87 112.134 13.68 111.822 14.448C111.51 15.216 111.066 15.906 110.49 16.518C109.914 17.118 109.236 17.598 108.456 17.958C107.688 18.306 106.842 18.48 105.918 18.48ZM102.588 12C102.588 12.492 102.66 12.972 102.804 13.44C102.948 13.896 103.158 14.304 103.434 14.664C103.722 15.024 104.076 15.312 104.496 15.528C104.916 15.744 105.396 15.852 105.936 15.852C106.5 15.852 106.992 15.744 107.412 15.528C107.832 15.3 108.18 15 108.456 14.628C108.732 14.256 108.936 13.842 109.068 13.386C109.212 12.918 109.284 12.444 109.284 11.964C109.284 11.472 109.212 10.998 109.068 10.542C108.924 10.086 108.708 9.67801 108.42 9.31801C108.132 8.94601 107.778 8.65801 107.358 8.45401C106.938 8.25001 106.464 8.14801 105.936 8.14801C105.372 8.14801 104.88 8.25601 104.46 8.47201C104.052 8.68801 103.704 8.98201 103.416 9.35401C103.14 9.71401 102.93 10.128 102.786 10.596C102.654 11.052 102.588 11.52 102.588 12Z" fill="#2E2F42"/>
</svg>
